<svg width="425" height="60" viewBox="0 0 425 60" fill="none" xmlns="http://www.w3.org/2000/svg">
<g clip-path="url(#clip0_107_239)">
<path d="M28.0817 0.0821139C28.035 0.117305 28 3.57772 28 7.7654V15.3666H19.6583H11.3167L11.2933 12.5748L11.2583 9.79473L8.49333 9.75953L5.71667 9.73607L5.69333 6.94428L5.65833 4.16423H2.85833H0.0583333L0.0233333 6.94428L0 9.73607H2.74167H5.48333L5.61167 10.0528C5.67 10.2287 5.71667 11.4135 5.71667 12.8328L5.69333 15.3079L8.42333 15.3666L11.1417 15.4252L11.2 29.9707C11.235 37.9707 11.27 44.5161 11.2933 44.5161C11.305 44.5161 15.0733 44.5044 19.6583 44.4809L28 44.4575L28.0233 52.2229L28.0583 60H42.0583H56.0583L56.0933 52.2229L56.1167 44.4575H63.7467C67.935 44.4575 71.6917 44.4927 72.0883 44.5279L72.8 44.61V47.4018V50.2053H75.5883C78.0267 50.2053 78.3883 50.2287 78.4467 50.393C78.4817 50.4985 78.5167 51.7654 78.5167 53.2082V55.8358H81.2583H84L83.9767 53.044L83.9417 50.2639L81.2233 50.2287L78.5167 50.2053L78.5283 47.437C78.54 45.8651 78.505 44.6334 78.4467 44.5748C78.3883 44.5161 77.105 44.4457 75.6 44.434L72.8583 44.3988L72.8233 37.9707L72.8 31.5543H64.4583H56.1167V15.7771V1.19007e-07H42.14C34.4517 1.19007e-07 28.1167 0.0351931 28.0817 0.0821139ZM44.8583 23.4369C44.8583 29.2551 44.8233 31.4839 44.73 31.566C44.6483 31.6246 41.3583 31.6598 36.33 31.6481L28.0583 31.6129L28.0233 23.4839L28 15.3666L36.4233 15.39L44.8583 15.4252V23.4369ZM56.1167 38.1232V44.4575L50.5167 44.434L44.905 44.3988L44.9167 38.2405C44.9167 34.8504 44.9167 32.0117 44.9167 31.9296C44.9167 31.824 46.1183 31.7889 50.5167 31.7889H56.1167V38.1232Z" fill="#010281"/>
<g clip-path="url(#clip1_107_239)">
<path d="M94.1363 0.272637C94.0668 0.435949 94.0436 3.14225 94.0668 6.26849L94.1363 11.9844L103.353 12.0544L112.547 12.101V35.9678C112.547 49.1027 112.593 59.9046 112.639 59.9512C112.686 59.9979 115.766 60.0212 119.471 59.9746L126.21 59.9046V36.0145V12.101L135.542 12.0544L144.852 11.9844V6.03519V0.0859961L119.54 0.0160055C99.231 -0.0306548 94.2057 0.0160055 94.1363 0.272637Z" fill="#010281"/>
<path d="M154.963 0.122528C154.8 0.425646 154.777 56.3159 154.939 58.2512L155.079 60L162.017 59.93L168.956 59.8601L168.909 29.968L168.84 0.0758943L161.948 0.00594396C158.165 -0.0173728 155.009 0.0292607 154.963 0.122528Z" fill="#010281"/>
<path d="M178.932 29.9173C178.932 46.38 178.979 59.9046 179.025 59.9513C179.071 59.9979 182.193 60.0212 185.963 59.9746L192.809 59.9046V50.9971V42.0895L195.445 39.4312L198.082 36.7962L201.851 41.5765C203.933 44.2114 206.06 46.9164 206.569 47.5693C207.078 48.2455 207.841 49.2249 208.257 49.7612C208.674 50.2742 209.159 50.8805 209.298 51.067C209.46 51.2769 209.992 51.9531 210.501 52.5827C211.01 53.2356 211.495 53.8419 211.588 53.9818C211.68 54.0984 212.166 54.7047 212.628 55.2876C213.114 55.8939 213.924 56.9199 214.432 57.5961C214.941 58.2724 215.566 59.0652 215.82 59.3683L216.283 59.928H224.493C229.002 59.928 232.795 59.928 232.888 59.928C233.05 59.928 231.639 57.9925 231.176 57.5961C231.107 57.5262 230.089 56.2204 228.887 54.6813C225.233 49.9711 223.475 47.7092 223.221 47.4294C223.105 47.2661 222.573 46.6132 222.064 45.937C221.556 45.2608 220.839 44.328 220.445 43.8384C220.075 43.3487 219.335 42.4159 218.827 41.7397C218.318 41.0635 217.323 39.8043 216.629 38.9415C215.519 37.5891 210.686 31.433 209.344 29.6608C209.09 29.3344 208.627 28.7514 208.304 28.355C207.17 26.9559 207.055 26.7927 207.286 26.6295C207.402 26.5362 208.026 25.8833 208.651 25.1837C211.449 22.0358 214.571 18.6313 216.283 16.7892C217.323 15.6932 218.827 14.0842 219.636 13.1748C220.469 12.2887 222.18 10.4466 223.452 9.09414C228.077 4.1973 231.546 0.419744 231.616 0.209879C231.662 0.0932879 228.447 1.4871e-05 223.799 1.4871e-05H215.913L215.404 0.536335C214.317 1.67893 211.495 4.73362 208.304 8.278C206.454 10.33 204.025 12.9883 202.869 14.2242C200.371 16.8824 193.502 24.8806 193.341 25.3236C192.901 26.4896 192.809 24.3676 192.809 12.8251V1.4871e-05H185.87H178.932V29.9173Z" fill="#010281"/>
<path d="M242.993 0.163429C242.855 0.443585 242.832 10.7626 242.97 11.4864L243.108 12.1401L252.346 12.07L261.607 12.0234L261.676 36L261.722 60H268.402H275.083V36.07V12.1401L284.251 12.0934L293.397 12.0234L293.466 6L293.512 2.28502e-06H268.31C254.442 2.28502e-06 243.039 0.0700439 242.993 0.163429Z" fill="#010281"/>
<path d="M303.651 0.13688C303.558 0.228135 303.489 8.41825 303.489 18.3422C303.489 39.2167 303.558 40.1065 305.203 44.692C307.565 51.308 313.702 56.8517 320.627 58.6768C321.067 58.7909 321.808 58.9734 322.248 59.1103C323.939 59.5665 327.506 60 329.521 60C332.601 60 337.325 59.4297 338.808 58.8593C339.062 58.7681 339.85 58.5171 340.545 58.289C346.242 56.4411 351.245 52.1977 353.746 47.0646C354.904 44.6692 355.321 43.4829 355.807 41.1787C356.525 37.8023 356.548 36.5475 356.479 18.4791L356.409 0.114066H349.693H342.976L342.861 18.9354C342.768 33.3992 342.675 37.8707 342.467 38.2586C342.305 38.5323 342.166 38.9886 342.166 39.308C342.166 39.6046 342.096 39.924 342.004 39.9924C341.934 40.0836 341.679 40.654 341.448 41.27C340.938 42.7529 339.896 44.2129 338.53 45.3992C336.399 47.27 333.666 48.1369 330.007 48.1369C324.726 48.1369 321.021 46.1521 319.168 42.365C317.987 39.9468 317.894 39.6274 317.501 36.4563C317.223 34.1293 317.153 30.4106 317.153 16.7909V-1.9744e-06H310.483C306.801 -1.9744e-06 303.72 0.0684391 303.651 0.13688Z" fill="#010281"/>
<path d="M366.481 0.116606C366.481 0.18656 366.736 0.652927 367.061 1.16593C367.385 1.67893 367.64 2.19193 367.64 2.33184C367.64 2.44843 367.756 2.56502 367.872 2.56502C368.011 2.56502 368.103 2.68162 368.103 2.82153C368.103 2.96144 368.567 3.8009 369.146 4.68699C369.725 5.57308 370.189 6.3659 370.189 6.43586C370.189 6.50581 370.443 6.90222 370.768 7.32195C371.092 7.74168 371.347 8.16141 371.347 8.23137C371.347 8.34796 372.598 10.4 374.081 12.7085C374.22 12.965 374.429 13.3381 374.521 13.5246C374.614 13.7112 375.24 14.7372 375.911 15.7865C376.583 16.8591 377.139 17.7685 377.139 17.8152C377.139 17.9318 379.966 22.6421 381.38 24.8806C381.727 25.4402 382.005 25.9299 382.005 25.9766C382.005 26.0465 382.469 26.8393 383.048 27.7254C383.627 28.6115 384.09 29.451 384.09 29.5909C384.09 29.7308 384.206 29.8474 384.322 29.8474C384.461 29.8474 384.554 29.9407 384.554 30.0573C384.554 30.1738 385.295 31.5263 386.199 33.042C387.126 34.5577 388.122 36.2366 388.4 36.7729L388.956 37.7523V48.8051C388.956 54.8679 389.002 59.9046 389.049 59.9513C389.095 59.9979 392.223 60.0212 396 59.9746L402.858 59.9046V48.6652C402.858 42.2294 402.95 37.3092 403.066 37.1693C403.252 36.9828 403.669 36.2599 404.804 34.1613C404.943 33.9048 405.105 33.6483 405.175 33.5783C405.244 33.5084 405.406 33.2519 405.545 32.9954C406.542 31.1532 407.839 28.9147 410.62 24.251C411.037 23.5515 411.593 22.5954 411.848 22.1524C412.103 21.7093 413.145 19.9371 414.188 18.2116C415.207 16.486 416.065 15.0403 416.065 15.017C416.065 14.9703 416.644 14.0376 417.339 12.9417C418.034 11.869 418.613 10.913 418.613 10.8663C418.613 10.8197 419.609 9.11746 420.814 7.11209C422.019 5.10671 423.015 3.38117 423.015 3.24126C423.015 3.12467 423.131 3.03139 423.247 3.03139C423.386 3.03139 423.479 2.9148 423.479 2.79821C423.479 2.6583 423.78 2.07534 424.151 1.46907C424.521 0.862794 424.776 0.279835 424.73 0.186562C424.591 -0.0466205 410.712 -0.0466205 410.365 0.186562C410.226 0.279835 409.716 1.07266 409.229 1.98207C408.766 2.86816 408.28 3.70762 408.187 3.84753C408.094 3.96412 407.723 4.59372 407.353 5.24663C406.658 6.52913 406.333 7.08877 405.059 9.32732C404.572 10.1668 403.924 11.3094 403.599 11.8923C403.275 12.4753 401.977 14.7138 400.726 16.8824C399.475 19.051 398.456 20.8699 398.456 20.9165C398.456 20.9865 398.247 21.3129 398.015 21.6627C397.76 22.0125 397.251 22.8985 396.88 23.6214C396.115 25.1138 396.023 25.0905 394.911 23.0385C394.586 22.4555 394.053 21.5461 393.729 21.0098C393.405 20.4968 393.127 20.0071 393.127 19.9371C393.127 19.8905 392.756 19.2609 392.316 18.5614C391.875 17.8618 391.505 17.2322 391.505 17.1623C391.505 17.0923 391.134 16.4627 390.694 15.7632C390.254 15.0636 389.883 14.434 389.883 14.3874C389.883 14.3174 389.304 13.3147 388.608 12.1488C387.913 10.9596 387.334 9.95691 387.334 9.91028C387.334 9.84032 386.963 9.23405 386.523 8.5345C386.083 7.83495 385.712 7.18204 385.712 7.11209C385.712 7.04213 385.457 6.55245 385.11 6.03945C384.531 5.10672 384.368 4.80358 383.048 2.44844C382.7 1.79552 382.214 1.0027 381.959 0.62961L381.519 1.63764e-05H373.988C369.864 1.63764e-05 366.481 0.0466508 366.481 0.116606Z" fill="#010281"/>
</g>
</g>
<defs>
<clipPath id="clip0_107_239">
<rect width="424.794" height="60" fill="white"/>
</clipPath>
<clipPath id="clip1_107_239">
<rect width="330.794" height="60" fill="white" transform="translate(94)"/>
</clipPath>
</defs>
</svg>
