<svg width="268" height="38" viewBox="0 0 268 38" fill="none" xmlns="http://www.w3.org/2000/svg">
<g clip-path="url(#clip0_69_124)">
<path d="M17.4895 0.0508625C17.4604 0.0726608 17.4386 2.21616 17.4386 4.81015V9.51857H12.2434H7.0481L7.03357 7.78924L7.01177 6.06718L5.28971 6.04538L3.56038 6.03085L3.54585 4.30152L3.52405 2.57946H1.78019H0.0363304L0.0145322 4.30152L0 6.03085H1.70753H3.41506L3.49499 6.22704C3.53132 6.33603 3.56038 7.0699 3.56038 7.9491L3.54585 9.48224L5.24611 9.51857L6.93911 9.5549L6.97544 18.5648C6.99724 23.5203 7.01904 27.5748 7.03357 27.5748C7.04084 27.5748 9.38778 27.5675 12.2434 27.553L17.4386 27.5385L17.4531 32.3486L17.4749 37.166H26.1942H34.9135L34.9353 32.3486L34.9499 27.5385H39.7019C42.3104 27.5385 44.6501 27.5603 44.8971 27.5821L45.3404 27.6329V29.3622V31.0988H47.077C48.5956 31.0988 48.8208 31.1134 48.8572 31.2151C48.8789 31.2805 48.9008 32.0652 48.9008 32.959V34.5866H50.6083H52.3158L52.3013 32.8572L52.2795 31.1352L50.5865 31.1134L48.9008 31.0988L48.908 29.384C48.9153 28.4104 48.8935 27.6475 48.8572 27.6111C48.8208 27.5748 48.0216 27.5312 47.0842 27.5239L45.3767 27.5021L45.3549 23.5203L45.3404 19.5458H40.1451H34.9499V9.77288V-1.56642e-06H26.2451C21.4567 -1.56642e-06 17.5113 0.0217982 17.4895 0.0508625ZM27.9381 14.5176C27.9381 18.1216 27.9163 19.5022 27.8582 19.553C27.8073 19.5894 25.7583 19.6112 22.6266 19.6039L17.4749 19.5821L17.4531 14.5467L17.4386 9.51857L22.6847 9.5331L27.9381 9.5549V14.5176ZM34.9499 23.6148V27.5385L31.4621 27.5239L27.9672 27.5021L27.9744 23.6874C27.9744 21.5875 27.9744 19.8291 27.9744 19.7783C27.9744 19.7129 28.7228 19.6911 31.4621 19.6911H34.9499V23.6148Z" fill="white"/>
<line x1="57.6097" y1="37.3684" x2="57.6098" y2="3.8147e-06" stroke="white" stroke-width="1.86842"/>
<path d="M64.8554 0.508802C64.8129 0.608651 64.7988 2.26329 64.8129 4.17469L64.8554 7.66941L70.4906 7.7122L76.1116 7.74073V22.333C76.1116 30.3637 76.1399 36.968 76.1682 36.9965C76.1966 37.025 78.0797 37.0393 80.3451 37.0108L84.4653 36.968V22.3615V7.74073L90.1712 7.7122L95.863 7.66941V4.03205V0.394689L80.3875 0.351896C67.9703 0.323368 64.8979 0.351896 64.8554 0.508802Z" fill="white"/>
<path d="M102.045 0.417023C101.946 0.60235 101.931 34.7739 102.031 35.9571L102.116 37.0263L106.358 36.9836L110.6 36.9408L110.572 18.6647L110.529 0.388511L106.315 0.345743C104.003 0.331487 102.073 0.359999 102.045 0.417023Z" fill="white"/>
<path d="M116.7 18.6337C116.7 28.699 116.728 36.968 116.756 36.9965C116.785 37.025 118.693 37.0393 120.998 37.0108L125.184 36.968V31.5219V26.0758L126.796 24.4505L128.408 22.8395L130.712 25.7621C131.985 27.3731 133.286 29.0269 133.597 29.4261C133.908 29.8396 134.375 30.4384 134.629 30.7663C134.884 31.0799 135.181 31.4506 135.265 31.5647C135.364 31.693 135.69 32.1064 136.001 32.4914C136.312 32.8906 136.609 33.2612 136.665 33.3468C136.722 33.4181 137.019 33.7887 137.302 34.1452C137.599 34.5158 138.093 35.1431 138.405 35.5566C138.716 35.97 139.097 36.4548 139.253 36.6401L139.536 36.9823H144.555C147.313 36.9823 149.632 36.9823 149.688 36.9823C149.787 36.9823 148.925 35.799 148.642 35.5566C148.599 35.5138 147.977 34.7154 147.242 33.7745C145.008 30.8946 143.933 29.5117 143.778 29.3406C143.707 29.2408 143.382 28.8416 143.071 28.4281C142.76 28.0147 142.321 27.4444 142.081 27.145C141.855 26.8456 141.402 26.2754 141.091 25.8619C140.78 25.4485 140.172 24.6786 139.748 24.1511C139.069 23.3242 136.114 19.5604 135.294 18.4769C135.138 18.2773 134.855 17.9208 134.657 17.6785C133.965 16.8231 133.894 16.7233 134.035 16.6235C134.106 16.5664 134.488 16.1672 134.87 15.7395C136.58 13.8149 138.489 11.7333 139.536 10.6071C140.172 9.93698 141.091 8.95326 141.586 8.39724C142.095 7.85548 143.141 6.72919 143.919 5.90229C146.747 2.90835 148.868 0.598734 148.911 0.470422C148.939 0.399138 146.973 0.34211 144.131 0.34211H139.309L138.998 0.670018C138.334 1.3686 136.609 3.23626 134.657 5.4033C133.526 6.6579 132.042 8.28319 131.335 9.0388C129.807 10.6641 125.608 15.5542 125.509 15.8251C125.24 16.5379 125.184 15.2405 125.184 8.18339V0.34211H120.942H116.7V18.6337Z" fill="white"/>
<path d="M155.867 0.44203C155.782 0.613318 155.768 6.92243 155.853 7.36493L155.937 7.7646L161.585 7.72178L167.247 7.69323L167.289 22.3526L167.318 37.0263H171.402H175.487V22.3955V7.7646L181.092 7.73605L186.684 7.69323L186.726 4.01053L186.754 0.342111H171.346C162.867 0.342111 155.895 0.384934 155.867 0.44203Z" fill="white"/>
<path d="M192.953 0.425799C192.896 0.481593 192.854 5.48906 192.854 11.5566C192.854 24.3194 192.896 24.8633 193.902 27.667C195.346 31.712 199.099 35.1015 203.332 36.2173C203.601 36.2871 204.055 36.3987 204.324 36.4823C205.357 36.7613 207.538 37.0263 208.77 37.0263C210.653 37.0263 213.542 36.6776 214.448 36.3289C214.604 36.2731 215.085 36.1197 215.51 35.9802C218.993 34.8504 222.052 32.256 223.581 29.1176C224.289 27.653 224.544 26.9277 224.842 25.5189C225.281 23.4546 225.295 22.6874 225.252 11.6403L225.21 0.411851H221.103H216.997L216.926 11.9193C216.869 20.7625 216.813 23.4964 216.685 23.7335C216.586 23.9009 216.501 24.1799 216.501 24.3752C216.501 24.5565 216.459 24.7518 216.402 24.7936C216.36 24.8494 216.204 25.1981 216.062 25.5747C215.751 26.4814 215.114 27.3741 214.278 28.0994C212.975 29.2431 211.305 29.7732 209.067 29.7732C205.839 29.7732 203.573 28.5597 202.44 26.2442C201.718 24.7657 201.662 24.5704 201.421 22.6316C201.251 21.2089 201.208 18.9353 201.208 10.6081V0.342109H197.13C194.879 0.342109 192.996 0.383954 192.953 0.425799Z" fill="white"/>
<path d="M231.368 0.413393C231.368 0.456164 231.524 0.741302 231.722 1.05495C231.921 1.3686 232.076 1.68226 232.076 1.7678C232.076 1.83908 232.147 1.91037 232.218 1.91037C232.303 1.91037 232.36 1.98165 232.36 2.06719C232.36 2.15273 232.643 2.66598 232.997 3.20774C233.351 3.7495 233.635 4.23424 233.635 4.27701C233.635 4.31978 233.791 4.56214 233.989 4.81877C234.187 5.07539 234.343 5.33202 234.343 5.37479C234.343 5.44607 235.108 6.70067 236.015 8.1121C236.1 8.26893 236.227 8.49704 236.284 8.6111C236.34 8.72515 236.723 9.35245 237.134 9.99401C237.545 10.6498 237.885 11.2058 237.885 11.2344C237.885 11.3056 239.613 14.1855 240.477 15.5542C240.689 15.8964 240.859 16.1958 240.859 16.2243C240.859 16.267 241.143 16.7518 241.497 17.2935C241.851 17.8353 242.134 18.3485 242.134 18.4341C242.134 18.5196 242.205 18.5909 242.276 18.5909C242.361 18.5909 242.418 18.6479 242.418 18.7192C242.418 18.7905 242.871 19.6174 243.423 20.5441C243.99 21.4708 244.599 22.4973 244.769 22.8252L245.109 23.424V30.1817C245.109 33.8885 245.138 36.968 245.166 36.9965C245.194 37.025 247.107 37.0393 249.416 37.0108L253.609 36.968V30.0962C253.609 26.1613 253.665 23.1531 253.736 23.0676C253.85 22.9535 254.105 22.5115 254.799 21.2284C254.884 21.0716 254.983 20.9148 255.025 20.872C255.068 20.8292 255.167 20.6724 255.252 20.5156C255.861 19.3893 256.655 18.0206 258.354 15.1693C258.609 14.7416 258.949 14.157 259.105 13.8861C259.261 13.6153 259.899 12.5317 260.536 11.4767C261.159 10.4217 261.683 9.53779 261.683 9.52353C261.683 9.49502 262.038 8.92475 262.463 8.25467C262.888 7.59886 263.242 7.01433 263.242 6.98581C263.242 6.9573 263.851 5.91655 264.587 4.69046C265.324 3.46436 265.933 2.40936 265.933 2.32382C265.933 2.25253 266.004 2.1955 266.075 2.1955C266.16 2.1955 266.217 2.12422 266.217 2.05294C266.217 1.96739 266.401 1.61097 266.627 1.24029C266.854 0.869616 267.01 0.513193 266.982 0.456165C266.897 0.313596 258.411 0.313596 258.199 0.456165C258.114 0.513193 257.802 0.997926 257.504 1.55394C257.221 2.09571 256.924 2.60895 256.867 2.6945C256.81 2.76578 256.584 3.15072 256.357 3.54991C255.932 4.33404 255.734 4.6762 254.955 6.04486C254.657 6.55811 254.26 7.25669 254.062 7.61311C253.864 7.96954 253.071 9.3382 252.306 10.6641C251.541 11.99 250.917 13.102 250.917 13.1305C250.917 13.1733 250.79 13.3729 250.648 13.5867C250.492 13.8006 250.181 14.3424 249.954 14.7843C249.486 15.6968 249.43 15.6825 248.75 14.4279C248.552 14.0715 248.226 13.5155 248.027 13.1876C247.829 12.8739 247.659 12.5745 247.659 12.5317C247.659 12.5032 247.432 12.1183 247.163 11.6906C246.894 11.2629 246.667 10.8779 246.667 10.8352C246.667 10.7924 246.441 10.4075 246.172 9.97976C245.902 9.55205 245.676 9.16711 245.676 9.1386C245.676 9.09583 245.322 8.48278 244.897 7.76994C244.472 7.04284 244.118 6.42979 244.118 6.40128C244.118 6.35851 243.891 5.98783 243.622 5.56012C243.353 5.13242 243.126 4.73323 243.126 4.69046C243.126 4.64768 242.97 4.34829 242.758 4.03464C242.403 3.46437 242.304 3.27903 241.497 1.83908C241.284 1.43989 240.987 0.955156 240.831 0.727046L240.562 0.34211H235.958C233.436 0.34211 231.368 0.370623 231.368 0.413393Z" fill="white"/>
</g>
<defs>
<clipPath id="clip0_69_124">
<rect width="267.02" height="37.3684" fill="white"/>
</clipPath>
</defs>
</svg>
